<svg width="84" height="84" viewBox="0 0 84 84" fill="none" xmlns="http://www.w3.org/2000/svg">
<path d="M82.3594 33.879H68.9062V30.4058C68.9062 29.5001 68.1712 28.7651 67.2656 28.7651H31.8281C30.9225 28.7651 30.1875 29.5001 30.1875 30.4058C30.1875 31.3114 30.9225 32.0464 31.8281 32.0464H65.625V44.6251C65.625 55.6747 59.7253 65.9433 50.1998 71.5313H18.7064C9.18094 65.9433 3.28125 55.6747 3.28125 44.6251V32.0464H14.2734C15.1791 32.0464 15.9141 31.3114 15.9141 30.4058C15.9141 29.5001 15.1791 28.7651 14.2734 28.7651H1.64062C0.735 28.7651 0 29.5001 0 30.4058V44.6251C0 50.8266 1.66688 56.9068 4.82016 62.2093C6.94641 65.7858 9.70594 68.9424 12.938 71.5313H1.64062C0.735 71.5313 0 72.2663 0 73.1719C0 79.1422 4.85789 84.0001 10.8281 84.0001H62.0156C67.9859 84.0001 72.8438 79.1422 72.8438 73.1719C72.8438 72.2663 72.1087 71.5313 71.2031 71.5313H55.9683C58.9427 69.1491 61.5152 66.2846 63.5644 63.0542H68.1959C76.9109 63.0542 84 55.9651 84 47.2501V35.5196C84 34.614 83.265 33.879 82.3594 33.879ZM62.0156 80.7188H10.8281C7.23023 80.7188 4.21148 78.1873 3.46172 74.8126H18.2667H50.6395H69.382C68.6323 78.1873 65.6135 80.7188 62.0156 80.7188ZM68.9062 43.7227H74.1562V47.2501C74.1562 50.5362 71.482 53.2104 68.1959 53.2104H67.8234C68.5387 50.4197 68.9062 47.5355 68.9062 44.6251V43.7227ZM80.7188 47.2501C80.7188 54.1554 75.1012 59.7729 68.1959 59.7729H65.4035C65.9269 58.7033 66.3961 57.6073 66.8046 56.4917H68.1959C73.2916 56.4917 77.4375 52.3458 77.4375 47.2501V42.0821C77.4375 41.1765 76.7025 40.4415 75.7969 40.4415H68.9062V37.1602H80.7188V47.2501Z" fill="#FF699F"/>
<path d="M33.4523 11.1233C35.0896 13.179 35.0929 16.0517 33.4588 18.1107L32.5844 19.2132C32.0217 19.9236 32.1398 20.9555 32.8502 21.5183C33.152 21.7578 33.5113 21.8743 33.869 21.8743C34.353 21.8743 34.832 21.661 35.1552 21.2541L36.0297 20.1516C38.6186 16.8901 38.6153 12.3373 36.0199 9.07904L35.1667 8.00771C33.9133 6.43435 33.9117 4.23591 35.1618 2.66091C35.7245 1.95052 35.6064 0.918569 34.896 0.355835C34.1856 -0.2069 33.1537 -0.0887745 32.5909 0.621616C30.3859 3.40084 30.3892 7.27927 32.5992 10.0536L33.4523 11.1233Z" fill="#FF699F"/>
<path d="M42.5465 14.813C44.1839 16.8687 44.1855 19.7431 42.5531 21.8021L41.6786 22.9046C41.1159 23.615 41.234 24.6469 41.9444 25.2097C42.2463 25.4492 42.6056 25.5657 42.9632 25.5657C43.4472 25.5657 43.9263 25.3524 44.2495 24.9455L45.1239 23.843C47.7128 20.5815 47.7096 16.0287 45.1141 12.7704L44.261 11.6991C43.0075 10.1258 43.0059 7.92732 44.256 6.35232C44.8188 5.64193 44.7007 4.60998 43.9903 4.04724C43.2799 3.48451 42.2479 3.60263 41.6852 4.31302C39.4802 7.09224 39.4835 10.9707 41.6934 13.745L42.5465 14.813Z" fill="#FF699F"/>
<path d="M24.36 14.8132C25.9973 16.8689 25.999 19.7433 24.3666 21.8006L23.4921 22.9031C22.9294 23.6135 23.0475 24.6455 23.7579 25.2082C24.0598 25.4477 24.4191 25.5642 24.7767 25.5642C25.2607 25.5642 25.7398 25.3509 26.063 24.9441L26.9374 23.8416C29.5263 20.58 29.523 16.0273 26.9276 12.769L26.0744 11.6977C24.821 10.1243 24.8194 7.92585 26.0695 6.35085C26.6323 5.64046 26.5141 4.60851 25.8037 4.04578C25.0934 3.48304 24.0614 3.60117 23.4987 4.31156C21.2937 7.09078 21.2969 10.9692 23.5069 13.7435L24.36 14.8132Z" fill="#FF699F"/>
<path d="M23.4956 28.7651C23.0641 28.7651 22.6408 28.9407 22.3357 29.2458C22.0305 29.5526 21.855 29.9743 21.855 30.4058C21.855 30.8372 22.0305 31.2605 22.3357 31.5673C22.6408 31.8725 23.0641 32.0464 23.4956 32.0464C23.9271 32.0464 24.3504 31.8725 24.6555 31.5673C24.9623 31.2605 25.1362 30.8389 25.1362 30.4058C25.1362 29.9743 24.9623 29.551 24.6555 29.2458C24.3504 28.9407 23.9271 28.7651 23.4956 28.7651Z" fill="#FF699F"/>
<path d="M53.304 63.3544C58.2144 58.3997 61.0313 51.573 61.0313 44.625C61.0313 43.7194 60.2963 42.9844 59.3907 42.9844C58.4851 42.9844 57.7501 43.7194 57.7501 44.625C57.7501 50.715 55.2793 56.7 50.9727 61.0444C50.3345 61.6875 50.3394 62.726 50.9825 63.3642C51.3024 63.6809 51.7191 63.84 52.1375 63.84C52.5608 63.84 52.9824 63.6776 53.304 63.3544Z" fill="#FF699F"/>
<path d="M46.7511 67.9661C47.0234 67.9661 47.3007 67.8972 47.555 67.7544L47.5927 67.7331C48.3819 67.2885 48.6608 66.2877 48.2162 65.4986C47.7716 64.7094 46.7708 64.4305 45.9816 64.8751L45.9439 64.8965C45.1547 65.3411 44.8758 66.3419 45.3204 67.131C45.6223 67.6658 46.1769 67.9661 46.7511 67.9661Z" fill="#FF699F"/>
</svg>
