<svg width="82" height="74" viewBox="0 0 82 74" fill="none" xmlns="http://www.w3.org/2000/svg">
<path d="M55.4141 11.261C55.4141 10.373 54.6966 9.65234 53.8125 9.65234C52.9284 9.65234 52.2109 10.373 52.2109 11.261C52.2109 12.149 52.9284 12.8697 53.8125 12.8697C54.6966 12.8697 55.4141 12.149 55.4141 11.261Z" fill="#FF699F"/>
<path d="M60.661 0.503522C60.3583 0.181783 59.9387 0 59.4983 0H22.5022C22.0617 0 21.6421 0.181783 21.3394 0.503522C21.0367 0.825261 20.8798 1.25639 20.9038 1.69717C21.884 19.6309 13.9819 30.0199 12.1321 36.5335C8.78959 48.2786 14.2429 63.4486 21.884 73.3758C22.1867 73.77 22.6559 74 23.1508 74H58.8512C59.3477 74 59.8154 73.77 60.1181 73.3758C67.3924 63.9312 73.0875 48.1386 69.8572 36.548C68.0394 29.9973 60.1133 19.7146 61.0966 1.69717C61.1223 1.25639 60.9637 0.823652 60.661 0.503522ZM63.7824 30.3207C63.9762 30.7293 64.1684 31.1299 64.3574 31.5208C65.1101 33.0812 65.7812 34.4792 66.3161 35.9801C57.1616 39.4404 48.5356 46.9192 41.0002 52.68C33.4328 46.8951 24.8324 39.4388 15.6763 35.9785C16.216 34.4792 16.8887 33.0828 17.6382 31.5256C17.8272 31.1315 18.021 30.7309 18.2164 30.3207C25.22 33.641 33.0597 35.3913 41.0002 35.3913C48.9408 35.3913 56.7804 33.641 63.7824 30.3207ZM14.8115 39.0881C23.4839 42.4326 31.7015 49.6395 39.3987 55.4952V70.7826H23.9452C15.6955 59.7051 13.2339 47.1364 14.8115 39.0881ZM58.0553 70.7826H42.6018V55.4952C50.3533 49.5961 58.5197 42.439 67.1633 39.0977C69.0676 49.2647 64.1028 62.5734 58.0553 70.7826ZM62.0688 26.4067C62.1953 26.7301 62.3298 27.0567 62.4676 27.3864C55.8771 30.5218 48.4891 32.1739 41.0002 32.1739C33.5113 32.1739 26.1233 30.5218 19.5329 27.3864C19.669 27.0599 19.8019 26.7349 19.9301 26.41C22.933 18.7703 24.3568 10.9761 24.1678 3.21739H57.8326C57.6437 10.9729 59.0658 18.7654 62.0688 26.4067Z" fill="#FF699F"/>
<path d="M55.9792 17.3307C55.7934 16.462 54.9414 15.9086 54.0765 16.0968C53.2117 16.2834 52.6623 17.1392 52.8481 18.0079C53.3318 20.2617 53.9484 22.5461 54.6835 24.8015C54.959 25.6444 55.8623 26.1061 56.7047 25.8294C57.5455 25.5527 58.0035 24.6438 57.7281 23.7992C57.0266 21.65 56.4388 19.4735 55.9792 17.3307Z" fill="#FF699F"/>
<path d="M80.3986 12.8695H70.4914L74.1637 9.18079C74.7883 8.55339 74.7883 7.53348 74.1637 6.90609C73.5391 6.2787 72.5237 6.2787 71.8991 6.90609L65.4929 13.3409C64.8683 13.9683 64.8683 14.9882 65.4929 15.6156L71.8991 22.0504C72.5237 22.6777 73.5391 22.6777 74.1637 22.0504C74.7883 21.423 74.7883 20.403 74.1637 19.7757L70.4914 16.0869H80.3986C81.2827 16.0869 82.0002 15.3662 82.0002 14.4782C82.0002 13.5902 81.2827 12.8695 80.3986 12.8695Z" fill="#FF699F"/>
<path d="M1.60156 16.0869H11.5088L7.83645 19.7757C7.21184 20.403 7.21184 21.423 7.83645 22.0504C8.46105 22.6777 9.47645 22.6777 10.1011 22.0504L16.5073 15.6156C17.1319 14.9882 17.1319 13.9683 16.5073 13.3409L10.1011 6.90609C9.47645 6.2787 8.46105 6.2787 7.83645 6.90609C7.21184 7.53348 7.21184 8.55339 7.83645 9.18079L11.5088 12.8695H1.60156C0.7175 12.8695 0 13.5902 0 14.4782C0 15.3662 0.7175 16.0869 1.60156 16.0869Z" fill="#FF699F"/>
</svg>
