<svg width="66" height="65" viewBox="0 0 66 65" fill="none" xmlns="http://www.w3.org/2000/svg">
<path d="M48.3512 55.9275C47.659 55.9275 46.9642 55.7612 46.3222 55.4236L33.4058 48.6347C33.1519 48.5019 32.8489 48.5019 32.595 48.6347L19.6786 55.4236C18.2013 56.1994 16.4443 56.0731 15.0947 55.0924C13.745 54.1117 13.0812 52.4815 13.3635 50.8371L15.8295 36.4576C15.8784 36.1754 15.7843 35.8867 15.5794 35.687L5.13023 25.5036C3.93527 24.3386 3.51246 22.6298 4.02937 21.0434C4.54629 19.457 5.89078 18.3216 7.54336 18.0819L21.9847 15.9839C22.2683 15.9426 22.5132 15.7648 22.6409 15.5083L29.0991 2.42535C29.8351 0.929161 31.3317 0 32.9998 0C34.6691 0 36.1644 0.929161 36.903 2.42535L43.3612 15.5071C43.4876 15.7635 43.7325 15.9426 44.0161 15.9826L58.4575 18.0806C60.1087 18.3203 61.4558 19.4557 61.9714 21.0421C62.4871 22.6285 62.0655 24.3386 60.8706 25.5023L50.4214 35.6857C50.2165 35.8854 50.1224 36.1741 50.1714 36.4563L52.6386 50.8358C52.9209 52.4802 52.2571 54.1104 50.9074 55.0911C50.143 55.6465 49.2497 55.9275 48.3512 55.9275ZM32.9998 45.0533C33.6959 45.0533 34.3907 45.2196 35.0249 45.5534L47.9413 52.3423C48.3731 52.5691 48.7263 52.3719 48.8578 52.2766C48.9893 52.1812 49.2871 51.9067 49.2046 51.426L46.7373 37.0466C46.495 35.6354 46.9629 34.1947 47.989 33.1946L58.4381 23.0112C58.7875 22.671 58.7088 22.2741 58.6585 22.1194C58.6083 21.9648 58.4394 21.5975 57.956 21.5266L43.5146 19.4286C42.0967 19.2224 40.8721 18.3332 40.2378 17.0484L33.7796 3.96536C33.5631 3.5272 33.1622 3.48081 32.9998 3.48081C32.8373 3.48081 32.4352 3.52849 32.2186 3.96536L25.7604 17.0484C25.1262 18.3332 23.9016 19.2224 22.4836 19.4286L8.04352 21.5266C7.56012 21.5962 7.39125 21.9648 7.34098 22.1194C7.2907 22.2741 7.21207 22.671 7.56141 23.0112L18.0105 33.1946C19.0366 34.1947 19.5046 35.6341 19.2622 37.0466L16.795 51.426C16.7125 51.9067 17.0102 52.1812 17.1417 52.2766C17.2732 52.3719 17.6264 52.5704 18.0582 52.3423L30.9746 45.5534C31.6089 45.2209 32.305 45.0533 32.9998 45.0533Z" fill="#FF699F"/>
<path d="M50.4668 8.11655C50.1123 8.11655 49.754 8.0083 49.4446 7.78407C48.6673 7.21961 48.4946 6.13065 49.0592 5.35227L50.9077 2.80964C51.4723 2.03255 52.5616 1.85986 53.3401 2.42432C54.1174 2.98877 54.2902 4.07773 53.7256 4.85611L51.8771 7.39874C51.5355 7.86783 51.0044 8.11655 50.4668 8.11655Z" fill="#FF699F"/>
<path d="M15.5268 8.10581C14.988 8.10581 14.4569 7.85709 14.1166 7.388L12.268 4.84537C11.7034 4.06828 11.8749 2.97932 12.6535 2.41357C13.4321 1.84912 14.52 2.02181 15.0859 2.7989L16.9344 5.34153C17.4991 6.11862 17.3276 7.20758 16.549 7.77332C16.2396 7.99756 15.8813 8.10581 15.5268 8.10581Z" fill="#FF699F"/>
<path d="M1.74154 42.3008C1.00806 42.3008 0.32486 41.833 0.086383 41.0971C-0.21139 40.1834 0.290055 39.2014 1.204 38.9037L4.19463 37.9321C5.10857 37.6344 6.09084 38.1357 6.38861 39.0494C6.68638 39.9631 6.18494 40.9451 5.27099 41.2428L2.28037 42.2144C2.10119 42.2737 1.91943 42.3008 1.74154 42.3008Z" fill="#FF699F"/>
<path d="M33.0013 65.0003C32.0396 65.0003 31.2598 64.2206 31.2598 63.2592V60.116C31.2598 59.1547 32.0396 58.375 33.0013 58.375C33.9629 58.375 34.7428 59.1547 34.7428 60.116V63.2592C34.7415 64.2206 33.9616 65.0003 33.0013 65.0003Z" fill="#FF699F"/>
<path d="M64.2584 42.3034C64.0805 42.3034 63.8987 42.2763 63.7195 42.2183L60.7289 41.2467C59.815 40.949 59.3135 39.9683 59.6113 39.0533C59.9091 38.1396 60.8913 37.6383 61.8053 37.936L64.7959 38.9077C65.7098 39.2053 66.2113 40.186 65.9135 41.101C65.675 41.8356 64.9931 42.3034 64.2584 42.3034Z" fill="#FF699F"/>
</svg>
