<svg width="94" height="97" viewBox="0 0 94 97" fill="none" xmlns="http://www.w3.org/2000/svg">
<path d="M21.7519 35.1929C19.9444 33.7853 17.3233 34.1055 15.9091 35.9072C15.4245 36.5248 15.5347 37.419 16.1543 37.9021C16.4147 38.1048 16.7245 38.2034 17.0306 38.2034C17.4544 38.2034 17.8745 38.0158 18.1558 37.6577C18.6006 37.0894 19.4274 36.989 19.9957 37.4323C20.6153 37.9154 21.5125 37.8055 21.9971 37.1879C22.4837 36.5684 22.3735 35.676 21.7519 35.1929Z" fill="#FF699F"/>
<path d="M36.6324 35.3954C37.1171 34.7778 37.0068 33.8836 36.3872 33.4005C34.5777 31.9928 31.9585 32.313 30.5444 34.1147C30.0597 34.7323 30.17 35.6265 30.7896 36.1096C31.05 36.3124 31.3598 36.4109 31.6658 36.4109C32.0897 36.4109 32.5097 36.2233 32.7891 35.8652C33.2339 35.2969 34.0588 35.1965 34.629 35.6398C35.2525 36.1229 36.1477 36.013 36.6324 35.3954Z" fill="#FF699F"/>
<path d="M22.2633 45.8495C22.6853 49.2786 25.8272 51.7245 29.2675 51.3039C32.7078 50.8833 35.1616 47.7517 34.7396 44.3226L34.5781 43.0021C34.5078 42.4318 34.2188 41.9203 33.7627 41.566C33.3084 41.2117 32.742 41.0564 32.168 41.1246L23.9816 42.1268C23.4095 42.1969 22.8963 42.4849 22.5427 42.9395C22.1873 43.3923 22.0295 43.9569 22.0999 44.5291L22.2633 45.8495ZM31.8315 44.0308L31.9095 44.6693C32.1395 46.5429 30.7995 48.2537 28.9196 48.4829C27.0417 48.7141 25.3235 47.3765 25.0935 45.5028L25.0156 44.8644L31.8315 44.0308Z" fill="#FF699F"/>
<path d="M46.2861 15.1581C46.6738 12.1515 46.2329 9.09374 45.0411 6.54939C43.6422 3.56171 41.2606 1.33185 38.1567 0.100404C37.4743 -0.170514 36.697 0.121244 36.3624 0.771068C34.8286 3.74548 31.1241 5.86357 26.4521 6.43572L18.2068 7.4455C17.4256 7.54023 16.8687 8.25068 16.9656 9.02933C17.0606 9.80798 17.7734 10.3612 18.5546 10.2665L26.798 9.25667C31.814 8.64285 35.9614 6.43003 38.189 3.24343C42.8363 5.71579 43.9634 10.8992 43.4597 14.7963C42.9351 18.8468 40.7987 21.8932 38.2631 22.2039L10.526 25.597C8.2242 25.8793 6.58008 27.9746 6.86329 30.2689L7.20351 33.0349L5.0424 33.3002L2.87748 15.7227C2.76344 14.7925 3.01813 13.8718 3.59785 13.1329C4.17757 12.394 5.01009 11.9242 5.94524 11.8086L12.8639 10.9618C13.645 10.8651 14.202 10.1566 14.105 9.37792C14.01 8.59927 13.2972 8.04607 12.516 8.14079L5.59741 8.98765C2.10959 9.41581 -0.38035 12.591 0.0473111 16.0675L2.28636 34.238C0.841811 35.2648 0.0283039 37.0229 0.254489 38.836C0.558604 41.2951 2.6589 43.1479 5.13933 43.1479C5.33321 43.1479 5.53468 43.1366 5.74566 43.1101L8.40477 42.7842L8.66517 44.9004C9.21257 49.3374 11.4592 53.2969 14.9927 56.0478C17.9749 58.3705 21.571 59.5982 25.2945 59.5982C25.9845 59.5982 26.6783 59.5565 27.3739 59.4712C29.5217 59.2079 31.5612 58.5505 33.4372 57.518C35.2524 56.5195 36.8509 55.2085 38.1852 53.6209C38.6908 53.0203 38.6129 52.1242 38.0085 51.6184C37.4059 51.1144 36.5069 51.1921 35.9994 51.7946C34.8913 53.1113 33.5646 54.2006 32.0573 55.0285C30.5025 55.8849 28.809 56.4305 27.0242 56.6484C23.3292 57.1012 19.6798 56.0914 16.747 53.8066C13.8142 51.5218 11.9477 48.2348 11.4934 44.5518L11.0582 41.0242C11.0126 40.651 10.8187 40.3099 10.5203 40.0769C10.2219 39.8439 9.84361 39.7397 9.46917 39.787L5.40163 40.2872C5.3085 40.2986 5.21916 40.3043 5.13743 40.3043C4.09394 40.3043 3.21011 39.5218 3.08086 38.4855C2.96681 37.561 3.48951 36.6686 4.35434 36.3182C4.35624 36.3182 4.35624 36.3163 4.35814 36.3163C4.5254 36.2481 4.70407 36.2007 4.88844 36.178L8.96358 35.6797C9.74477 35.585 10.2998 34.8745 10.2047 34.0959L9.68965 29.9184C9.59842 29.1796 10.1287 28.5032 10.87 28.4123L37.1911 25.1916L39.1603 41.1663C39.4188 43.2521 39.2097 45.3115 38.5407 47.2913C38.2898 48.0358 38.6908 48.841 39.4359 49.0911C39.586 49.1422 39.74 49.165 39.8921 49.165C40.487 49.165 41.042 48.7899 41.2435 48.1988C42.0513 45.8135 42.3022 43.3298 41.9924 40.8196L40.0042 24.6876C43.2221 23.5509 45.6702 19.9172 46.2861 15.1581Z" fill="#FF699F"/>
<path d="M74.0024 74.8301C74.5726 74.3868 75.3975 74.4872 75.8423 75.0556C76.1236 75.4137 76.5436 75.6012 76.9675 75.6012C77.2735 75.6012 77.5833 75.5027 77.8437 75.3C78.4634 74.8169 78.5736 73.9246 78.0889 73.305C76.6767 71.5015 74.0556 71.1813 72.2461 72.5908C71.6265 73.0739 71.5163 73.9662 72.0009 74.5857C72.4856 75.2053 73.3809 75.3132 74.0024 74.8301Z" fill="#FF699F"/>
<path d="M57.6128 70.8004C56.9932 71.2835 56.883 72.1758 57.3676 72.7953C57.8523 73.4129 58.7476 73.5228 59.3691 73.0397C59.9393 72.5964 60.7642 72.6968 61.209 73.2651C61.4903 73.6232 61.9084 73.8108 62.3342 73.8108C62.6402 73.8108 62.95 73.7123 63.2104 73.5095C63.8301 73.0264 63.9403 72.1341 63.4556 71.5146C62.0434 69.7129 59.4223 69.3927 57.6128 70.8004Z" fill="#FF699F"/>
<path d="M70.0187 79.5288L61.8323 78.5266C61.2602 78.4565 60.6938 78.6137 60.2376 78.968C59.2132 79.7656 59.4526 80.8379 59.2607 81.7245C58.5745 87.2888 65.0027 90.824 69.3687 87.4252C71.9917 85.3829 71.7294 82.5657 71.9005 81.9311C72.0449 80.7508 71.201 79.6728 70.0187 79.5288ZM67.6124 85.184C66.8902 85.7466 65.9892 85.9948 65.0788 85.8849C63.1952 85.6538 61.8571 83.9487 62.0889 82.0694L62.1669 81.4309L68.9847 82.2645C68.903 82.5676 69.0285 84.0813 67.6124 85.184Z" fill="#FF699F"/>
<path d="M92.6485 48.7821C91.5993 47.4446 90.092 46.5939 88.4023 46.3874L68.8135 43.9908C68.0817 43.9018 67.4146 43.5058 66.9793 42.9034C65.6222 41.0278 63.7785 39.5728 61.644 38.6956C60.916 38.3963 60.0835 38.7411 59.7832 39.4667C59.4829 40.1923 59.8288 41.0221 60.5568 41.3214C62.199 41.9959 63.6188 43.1175 64.6642 44.5649C65.5614 45.8058 66.947 46.6261 68.4638 46.8099L88.0526 49.2065C89.9799 49.4433 91.356 51.1976 91.1203 53.1187L88.9554 70.698L86.7943 70.4328L87.1345 67.6649C87.4177 65.3706 85.7736 63.2734 83.4718 62.993L55.7366 59.6018C53.1307 59.2835 50.827 57.9535 49.2494 55.8601C47.6737 53.7666 47.0389 51.1882 47.4589 48.5983C48.1375 44.4341 51.555 41.1718 55.7727 40.6659C56.5539 40.5731 57.1127 39.8645 57.0177 39.0859C56.9245 38.3072 56.2137 37.7502 55.4325 37.845C49.9622 38.5005 45.5259 42.7348 44.644 48.1436C44.0966 51.5045 44.9215 54.8503 46.9686 57.567C48.7267 59.9011 51.1824 61.5001 53.9841 62.1689L52.0055 78.225C51.7413 80.3639 51.8876 82.4972 52.4407 84.5641C52.6099 85.2007 53.1877 85.6194 53.8168 85.6194C53.9385 85.6194 54.062 85.6042 54.1837 85.572C54.944 85.3693 55.3982 84.5925 55.1949 83.8328C54.7368 82.1164 54.6151 80.3469 54.8356 78.5698L56.8048 62.597L83.1259 65.8177C83.8672 65.9087 84.3975 66.585 84.3063 67.3239L83.7912 71.5013C83.7455 71.8745 83.8501 72.2515 84.082 72.549C84.3158 72.8464 84.656 73.0378 85.0323 73.0851L89.1075 73.5834C89.2804 73.6042 89.4477 73.6497 89.6074 73.7103C90.495 74.0514 91.031 74.9418 90.9151 75.889C90.7877 76.9254 89.9039 77.7078 88.8585 77.7078C88.7767 77.7078 88.6893 77.7021 88.6019 77.6926L84.5267 77.1925C84.1504 77.147 83.7741 77.2512 83.4756 77.4824C83.1772 77.7135 82.9853 78.0545 82.9377 78.4296L82.5025 81.9572C82.0482 85.6402 80.1836 88.9272 77.2489 91.212C74.3161 93.4968 70.6667 94.5066 66.9698 94.0538C65.0311 93.817 63.2026 93.1956 61.5376 92.2048C59.9258 91.248 58.5458 89.9957 57.432 88.4858C56.9663 87.853 56.073 87.7166 55.4401 88.1808C54.8052 88.6449 54.6684 89.5354 55.134 90.1662C56.4741 91.985 58.1372 93.4911 60.0778 94.643C62.0869 95.8366 64.2879 96.5868 66.6239 96.871C67.3195 96.9562 68.0133 96.9979 68.7033 96.9979C72.4268 96.9979 76.0229 95.7703 79.0052 93.4476C82.5386 90.6948 84.7852 86.7371 85.3326 82.3001L85.593 80.1839C88.1381 80.4852 88.3358 80.5477 88.8585 80.5477C91.3389 80.5477 93.4411 78.693 93.7433 76.2339C93.9695 74.4 93.1617 72.6532 91.7115 71.632L93.9486 53.4654C94.1596 51.783 93.6958 50.1196 92.6485 48.7821Z" fill="#FF699F"/>
<path d="M72.4666 18.2386C73.2534 18.2386 73.8921 17.602 73.8921 16.8177V13.3394C73.8921 12.555 73.2534 11.9185 72.4666 11.9185C71.6797 11.9185 71.041 12.555 71.041 13.3394V16.8177C71.041 17.602 71.6778 18.2386 72.4666 18.2386Z" fill="#FF699F"/>
<path d="M72.4666 28.9315C73.2534 28.9315 73.8921 28.2949 73.8921 27.5106V24.0322C73.8921 23.2479 73.2534 22.6113 72.4666 22.6113C71.6797 22.6113 71.041 23.2479 71.041 24.0322V27.5106C71.041 28.2949 71.6778 28.9315 72.4666 28.9315Z" fill="#FF699F"/>
<path d="M76.0857 21.8457H79.5754C80.3623 21.8457 81.001 21.2091 81.001 20.4248C81.001 19.6405 80.3623 19.0039 79.5754 19.0039H76.0857C75.2988 19.0039 74.6602 19.6405 74.6602 20.4248C74.6602 21.2091 75.2969 21.8457 76.0857 21.8457Z" fill="#FF699F"/>
<path d="M65.3582 21.8457H68.8479C69.6348 21.8457 70.2734 21.2091 70.2734 20.4248C70.2734 19.6405 69.6348 19.0039 68.8479 19.0039H65.3582C64.5713 19.0039 63.9326 19.6405 63.9326 20.4248C63.9326 21.2091 64.5713 21.8457 65.3582 21.8457Z" fill="#FF699F"/>
<path d="M21.5334 68.0684C20.7466 68.0684 20.1079 68.7049 20.1079 69.4893V72.9676C20.1079 73.7519 20.7466 74.3885 21.5334 74.3885C22.3203 74.3885 22.959 73.7519 22.959 72.9676V69.4893C22.959 68.703 22.3203 68.0684 21.5334 68.0684Z" fill="#FF699F"/>
<path d="M21.5334 78.7593C20.7466 78.7593 20.1079 79.3958 20.1079 80.1802V83.6585C20.1079 84.4429 20.7466 85.0794 21.5334 85.0794C22.3203 85.0794 22.959 84.4429 22.959 83.6585V80.1802C22.959 79.3958 22.3203 78.7593 21.5334 78.7593Z" fill="#FF699F"/>
<path d="M28.6418 75.1523H25.1521C24.3652 75.1523 23.7266 75.7889 23.7266 76.5732C23.7266 77.3576 24.3652 77.9941 25.1521 77.9941H28.6418C29.4287 77.9941 30.0674 77.3576 30.0674 76.5732C30.0674 75.7889 29.4287 75.1523 28.6418 75.1523Z" fill="#FF699F"/>
<path d="M17.9143 75.1523H14.4246C13.6377 75.1523 12.999 75.7889 12.999 76.5732C12.999 77.3576 13.6377 77.9941 14.4246 77.9941H17.9143C18.7012 77.9941 19.3398 77.3576 19.3398 76.5732C19.3398 75.7889 18.7012 75.1523 17.9143 75.1523Z" fill="#FF699F"/>
</svg>
