<svg width="70" height="63" viewBox="0 0 70 63" fill="none" xmlns="http://www.w3.org/2000/svg">
<path d="M35.4501 36.9001C39.3941 36.9001 42.5912 33.6171 42.5912 29.5672C42.5912 25.5174 39.3941 22.2344 35.4501 22.2344C31.5062 22.2344 28.3091 25.5174 28.3091 29.5672C28.3091 33.6171 31.5062 36.9001 35.4501 36.9001ZM35.4501 25.7279C37.5165 25.7279 39.1907 27.4471 39.1907 29.5689C39.1907 31.6907 37.5165 33.4099 35.4501 33.4099C33.3838 33.4099 31.7096 31.6907 31.7096 29.5689C31.7096 27.4471 33.3838 25.7279 35.4501 25.7279Z" fill="#FF699F"/>
<path d="M63.926 5.47694L17.5131 0.0654395C15.712 -0.196866 13.8865 0.342781 12.497 1.54905C11.1075 2.65508 10.2175 4.29406 10.032 6.08843L9.1827 13.2459H6.5469C2.80634 13.2459 0.0013286 16.6508 0.0013286 20.4901V56.1904C-0.0930396 59.8526 2.72174 62.9 6.2882 62.9969C6.37443 62.9986 6.46067 63.0003 6.54527 62.9986H53.212C56.9525 62.9986 60.353 60.0314 60.353 56.1904V54.7936C61.5131 54.5631 62.613 54.0886 63.5827 53.3969C64.9592 52.2057 65.8426 50.5199 66.0477 48.6838L69.9574 13.2459C70.3593 9.39648 67.6682 5.93305 63.926 5.47694ZM6.5469 16.7377H53.2136C55.2116 16.8229 56.8256 18.4418 56.9541 20.4918V35.1558L38.4238 46.2412C36.8326 47.2085 34.8183 47.0331 33.4093 45.8051L24.0587 37.3378C21.379 34.9737 17.4611 34.8284 14.6235 36.9886L3.40346 45.369V20.4918C3.40184 18.5705 4.67743 16.7377 6.5469 16.7377ZM53.2152 59.5084H6.5469C4.85804 59.5586 3.44739 58.1936 3.39858 56.4594C3.39533 56.3691 3.39696 56.2806 3.40184 56.192V49.733L16.5776 39.7821C18.1607 38.5341 20.3897 38.6443 21.8476 40.0444L31.1135 48.4248C32.5209 49.6378 34.2911 50.3161 36.1281 50.3445C37.5647 50.3629 38.977 49.9702 40.2087 49.21L56.9541 39.2592V56.1937C56.9541 58.1117 55.0847 59.5084 53.2152 59.5084ZM66.5602 12.8098L62.5642 48.2477C62.5707 49.1666 62.1623 50.0371 61.4594 50.6051C61.1194 50.9543 60.3547 51.1281 60.3547 51.3035V20.4901C60.2212 16.5138 57.0876 13.3361 53.2136 13.2459H12.5832L13.3479 6.43761C13.5139 5.55547 13.9629 4.75686 14.6235 4.16876C15.3687 3.63914 16.2701 3.39354 17.1731 3.47039L63.4997 8.96878C65.3692 9.15089 66.7408 10.855 66.5634 12.7747C66.5634 12.7864 66.5618 12.7981 66.5602 12.8098Z" fill="#FF699F"/>
</svg>
