<svg width="92" height="70" viewBox="0 0 92 70" fill="none" xmlns="http://www.w3.org/2000/svg">
<path d="M88.8662 53.7204L83.4091 51.008C83.3768 50.9919 83.357 50.9598 83.357 50.9258V48.1974C85.5977 46.6643 87.1826 44.2378 87.5797 41.3932C88.5877 39.6618 89.1178 37.7052 89.1178 35.7165C89.1178 32.0071 87.3227 28.7086 84.5502 26.6342C84.7119 26.0963 84.7963 25.5406 84.7963 24.9742C84.7963 21.4703 81.6069 18.6203 77.6879 18.6203C73.7689 18.6203 70.5795 21.4703 70.5795 24.9742C70.5795 25.5406 70.6621 26.0963 70.8256 26.6342C69.1725 27.8724 67.8698 29.5467 67.0845 31.4818C66.7503 28.2173 66.4017 24.3578 66.0693 19.8639C65.6291 13.9335 63.4836 8.92332 59.8665 5.38008C56.2763 1.86007 51.4805 0 46 0C40.5195 0 35.7237 1.86007 32.1335 5.37651C28.5164 8.92153 26.3709 13.93 25.9307 19.8604C25.8139 21.4346 25.6953 22.9283 25.5767 24.3488H12.871C8.15602 24.3488 4.32148 28.1637 4.32148 32.8505V32.9309C4.32148 34.0226 4.58023 35.1161 5.07258 36.0917L5.76258 37.464V39.6511C5.76258 43.1193 7.48039 46.2301 10.0841 48.1027V50.0378C10.0841 50.2861 9.91695 50.5077 9.67617 50.5756L4.11305 52.1569C1.69086 52.8449 0 55.0748 0 57.5781V68.6599C0 69.3996 0.60375 70 1.34766 70C2.09156 70 2.69531 69.3996 2.69531 68.6599V57.5781C2.69531 56.2648 3.58297 55.0962 4.85156 54.7353L10.4147 53.154C10.6159 53.0968 10.8064 53.02 10.9879 52.927L14.4038 56.3238V68.6599C14.4038 69.3996 15.0075 70 15.7514 70C16.4953 70 17.0991 69.3996 17.0991 68.6599V56.3238L20.5383 52.9038C20.9983 53.129 21.4565 53.2576 21.7907 53.3541L23.1563 53.7418C21.3055 55.0516 20.1645 57.185 20.1645 59.5007V68.6581C20.1645 69.3978 20.7683 69.9982 21.5122 69.9982C22.2561 69.9982 22.8598 69.3978 22.8598 68.6581V59.5007C22.8598 57.7639 23.893 56.188 25.4905 55.4858L33.1955 52.1015C35.6105 56.9098 40.5447 59.9724 45.9982 59.9724C51.4733 59.9724 56.3913 56.917 58.8045 52.1033L66.5077 55.4858C68.1052 56.188 69.1384 57.7639 69.1384 59.5007V68.6581C69.1384 69.3978 69.7421 69.9982 70.486 69.9982C71.2299 69.9982 71.8337 69.3978 71.8337 68.6581V59.5007C71.8337 57.7872 71.2066 56.1719 70.132 54.9158L72.2182 53.8794L73.7833 55.3589C74.8776 56.3935 76.2827 56.9116 77.6879 56.9116C79.093 56.9116 80.4982 56.3935 81.5925 55.3589L83.1576 53.8794L87.6588 56.1165C88.6722 56.6204 89.3029 57.6335 89.3029 58.761V68.6581C89.3029 69.3978 89.9066 69.9982 90.6505 69.9982C91.3945 69.9982 91.9982 69.3978 91.9982 68.6581V58.761C92 56.6132 90.7997 54.6817 88.8662 53.7204ZM73.2748 24.9742C73.2748 22.948 75.2549 21.3005 77.6879 21.3005C80.1209 21.3005 82.101 22.948 82.101 24.9742C82.101 25.06 82.0938 25.144 82.0866 25.2279C80.7318 24.6633 79.2458 24.3506 77.6861 24.3506C76.1282 24.3506 74.6422 24.6633 73.2873 25.2279C73.282 25.1422 73.2748 25.0582 73.2748 24.9742ZM77.6897 27.029C82.5053 27.029 86.4243 30.9261 86.4243 35.7147C86.4243 36.6385 86.2734 37.5533 85.9805 38.4253C82.1531 34.5604 75.422 33.0452 75.0968 32.9738C74.6979 32.8862 74.281 32.9827 73.963 33.2382C73.6449 33.4919 73.4598 33.8761 73.4598 34.2835C73.4598 34.2924 73.3988 35.2216 72.4141 36.2007C71.8876 36.7243 71.8876 37.573 72.4141 38.0965C72.9405 38.6201 73.7941 38.6201 74.3205 38.0965C75.0788 37.3425 75.5245 36.5778 75.785 35.9327C78.0527 36.6028 82.7587 38.2949 84.8718 41.2645C84.2716 44.7184 81.2637 47.2682 77.6897 47.2682C73.9576 47.2682 70.8418 44.4897 70.4411 40.8053C70.4195 40.607 70.3548 40.4176 70.2488 40.2479C69.4025 38.8756 68.9551 37.3086 68.9551 35.7165C68.9533 30.9261 72.8723 27.029 77.6897 27.029ZM34.0256 7.2866C37.1019 4.27226 41.2419 2.68021 46 2.68021C50.7581 2.68021 54.8981 4.27226 57.9744 7.2866C61.1207 10.3688 62.9895 14.7858 63.3812 20.0587C64.4413 34.3514 65.6506 42.3223 66.1196 45.0847C66.1268 45.1276 66.1124 45.1455 66.0873 45.1616C64.8061 45.9871 62.0245 47.5255 57.6851 48.6798L55.4623 47.7042C54.9071 47.4612 54.5495 46.9126 54.5495 46.3105V41.7041C58.88 38.9095 61.7514 34.0601 61.7514 28.555V26.0427C61.7514 24.4096 61.0524 22.8694 59.8359 21.8169C57.128 19.4744 50.9989 15.388 40.3722 14.332C39.6337 14.2587 38.9706 14.7948 38.897 15.5327C38.8233 16.2689 39.3641 16.9264 40.1045 16.9997C49.9891 17.9824 55.6007 21.7079 58.0678 23.8396C58.6967 24.3828 59.0579 25.1868 59.0579 26.0445V28.5568C59.0579 35.7165 53.2001 41.5397 46.0018 41.5397C38.8035 41.5397 32.9457 35.7147 32.9457 28.5568V27.4364C32.9457 26.9218 33.2332 26.4501 33.713 26.175C35.3984 25.2101 37.6194 23.4233 38.6382 20.3875C38.8736 19.6853 38.4927 18.9259 37.7865 18.6918C37.0803 18.4577 36.3166 18.8365 36.0812 19.5387C35.332 21.7758 33.6483 23.1177 32.3689 23.8503C31.0626 24.599 30.2504 25.973 30.2504 27.4347V28.555C30.2504 34.0601 33.1218 38.9095 37.4523 41.7041V46.3123C37.4523 46.9162 37.0929 47.463 36.5377 47.706L34.3149 48.6816C29.9737 47.5273 27.1939 45.9871 25.9127 45.1634C25.8876 45.1473 25.8732 45.1276 25.8804 45.0865C26.3512 42.3241 27.5587 34.3532 28.6188 20.0605C29.0105 14.7858 30.8793 10.3688 34.0256 7.2866ZM8.45609 39.6528V37.1477C8.45609 36.9405 8.40758 36.735 8.31414 36.5492L7.48219 34.8946C7.17672 34.2888 7.0168 33.6099 7.0168 32.9309V32.8505C7.0168 29.6414 9.64383 27.029 12.871 27.029H24.4878V32.5914C24.4878 33.4901 24.274 34.3907 23.8697 35.1948L23.1887 36.5474C23.0952 36.7332 23.0467 36.9387 23.0467 37.146V40.0102C23.0467 41.9882 22.2597 43.8376 20.8312 45.217C19.4027 46.5946 17.5177 47.3218 15.5268 47.2611C11.6276 47.1467 8.45609 43.7321 8.45609 39.6528ZM15.4459 49.9431C15.5502 49.9467 15.6526 49.9484 15.7568 49.9484C16.7792 49.9484 17.7765 49.7948 18.727 49.5017V50.0396C18.727 50.3308 18.7576 50.5935 18.8097 50.8347L15.7532 53.8741L12.6823 50.8204C12.7452 50.5685 12.7794 50.3076 12.7794 50.0396V49.4749C13.6257 49.7501 14.5205 49.9145 15.4459 49.9431ZM21.4205 50.0396V48.1938C21.8734 47.8829 22.3046 47.5327 22.7089 47.1431C22.9802 46.8805 23.2336 46.6053 23.4708 46.3194C23.6882 46.7554 24.0188 47.1378 24.4483 47.413C25.5282 48.108 27.5677 49.2641 30.5648 50.329L26.7896 51.9872L22.5328 50.7775C21.4205 50.4613 21.4205 50.338 21.4205 50.0396ZM46 57.2922C41.6156 57.2922 37.6445 54.855 35.6644 51.0187L37.6266 50.1575C39.1575 49.4857 40.1458 47.9758 40.1458 46.3105V43.0942C41.957 43.8179 43.9318 44.2164 46 44.2164C48.0682 44.2164 50.043 43.8179 51.8542 43.0942V46.3105C51.8542 47.974 52.8443 49.4839 54.3734 50.1575L56.3356 51.0187C54.3573 54.8604 50.4005 57.2922 46 57.2922ZM61.4352 50.329C64.4323 49.2659 66.47 48.1098 67.5517 47.413C68.4807 46.8144 68.9623 45.7262 68.7772 44.638C68.7664 44.5791 68.7556 44.513 68.7448 44.4486C69.5031 45.9639 70.6352 47.2504 72.0187 48.1974V50.924C72.0187 50.9598 71.999 50.9901 71.9666 51.0062L67.744 53.1057C67.6937 53.0825 67.6452 53.0557 67.5948 53.0343L61.4352 50.329ZM75.6395 53.4166L74.387 52.2338C74.5991 51.8407 74.7141 51.394 74.7141 50.9258V49.4999C75.6556 49.7912 76.6529 49.9484 77.6879 49.9484C78.7211 49.9484 79.7202 49.7912 80.6617 49.4999V50.9258C80.6617 51.394 80.7785 51.8407 80.9887 52.2338L79.7363 53.4166C78.5881 54.5012 76.7895 54.5012 75.6395 53.4166Z" fill="#FF699F"/>
</svg>
