<svg width="73" height="77" viewBox="0 0 73 77" fill="none" xmlns="http://www.w3.org/2000/svg">
<g clip-path="url(#clip0)">
<path d="M64.4898 73.23H50.6198V70.43H61.6898V3.73C61.6898 3.22 61.2698 2.8 60.7598 2.8H11.4898C10.9898 2.8 10.5598 3.23 10.5598 3.73V70.42H21.7498V73.22H7.75977V3.73C7.75977 1.68 9.42977 0 11.4898 0H60.7598C62.8198 0 64.4898 1.68 64.4898 3.73V73.23Z" fill="#FF699F"/>
<path d="M57.2098 73.2302H50.6498V70.4302H54.4098V10.1702C54.4098 10.1002 54.3498 10.0402 54.2798 10.0402H17.9598C17.8898 10.0402 17.8298 10.1002 17.8298 10.1702V70.4302H21.6198V73.2302H15.0298V10.1702C15.0298 8.55023 16.3398 7.24023 17.9598 7.24023H54.2798C55.8898 7.24023 57.2098 8.56023 57.2098 10.1702V73.2302Z" fill="#FF699F"/>
<path d="M49.59 76.2402H22.66C21.34 76.2402 20.27 75.1702 20.27 73.8502V69.8002C20.27 68.4802 21.34 67.4102 22.66 67.4102H49.59C50.91 67.4102 51.98 68.4802 51.98 69.8002V73.8502C51.97 75.1702 50.9 76.2402 49.59 76.2402ZM23.07 73.4402H49.18V70.2102H23.07V73.4402Z" fill="#FF699F"/>
<path d="M40.5698 25.0302H31.6798C30.4998 25.0302 29.5298 24.0702 29.5298 22.8802V18.3502C29.5298 17.1602 30.4898 16.2002 31.6798 16.2002H40.5698C41.7498 16.2002 42.7198 17.1602 42.7198 18.3502V22.8802C42.7198 24.0702 41.7498 25.0302 40.5698 25.0302ZM32.3298 22.2302H39.9098V19.0002H32.3298V22.2302Z" fill="#FF699F"/>
<path d="M51.7898 52.4798H47.8398C46.6898 52.4798 45.7598 51.5498 45.7598 50.3998V37.9198C45.7598 36.7698 46.6898 35.8398 47.8398 35.8398H51.7898C52.9398 35.8398 53.8698 36.7698 53.8698 37.9198V50.3998C53.8698 51.5398 52.9398 52.4798 51.7898 52.4798ZM48.5598 49.6798H51.0698V38.6398H48.5598V49.6798Z" fill="#FF699F"/>
<path d="M10.56 73.2301H2C0.9 73.2301 0 72.3301 0 71.2301V64.6401C0 63.5401 0.9 62.6401 2 62.6401H8.57C9.67 62.6401 10.57 63.5401 10.57 64.6401V73.2301H10.56ZM2.8 70.4301H7.76V65.4501H2.8V70.4301Z" fill="#FF699F"/>
<path d="M70.0799 73.2299H61.6899V64.8199C61.6899 63.6199 62.6599 62.6499 63.8599 62.6499H70.0899C71.2799 62.6499 72.2599 63.6199 72.2599 64.8199V71.0699C72.2499 72.2499 71.2799 73.2299 70.0799 73.2299ZM64.4899 70.4299H69.4499V65.4499H64.4899V70.4299Z" fill="#FF699F"/>
<path d="M36.1202 32.7599C34.2302 32.7599 32.6802 31.2199 32.6802 29.3199C32.6802 27.4199 34.2202 25.8799 36.1202 25.8799C38.0102 25.8799 39.5602 27.4199 39.5602 29.3199C39.5602 31.2099 38.0202 32.7599 36.1202 32.7599ZM36.1202 28.6799C35.7702 28.6799 35.4802 28.9699 35.4802 29.3199C35.4802 29.6699 35.7702 29.9599 36.1202 29.9599C36.4702 29.9599 36.7502 29.6699 36.7502 29.3199C36.7602 28.9599 36.4702 28.6799 36.1202 28.6799Z" fill="#FF699F"/>
</g>
<defs>
<clipPath id="clip0">
<rect width="72.25" height="76.24" fill="white"/>
</clipPath>
</defs>
</svg>
