<svg width="92" height="77" viewBox="0 0 92 77" fill="none" xmlns="http://www.w3.org/2000/svg">
<path d="M60.2893 30.7068C59.4972 30.7068 58.7747 30.1853 58.557 29.3953C58.299 28.45 58.8645 27.4737 59.8226 27.2185L59.8944 27.1985C60.8526 26.95 61.8354 27.518 62.0845 28.4678C62.3358 29.4153 61.7613 30.385 60.8032 30.6336L60.7583 30.6447C60.6012 30.6868 60.4442 30.7068 60.2893 30.7068Z" fill="#FF699F"/>
<path d="M72.3815 47.7489C71.5288 47.7489 70.6873 47.527 69.9267 47.0942C68.7868 46.4441 67.9722 45.3923 67.6311 44.1363C67.3753 43.1888 67.9431 42.2168 68.9012 41.9617C69.8593 41.7065 70.8422 42.2701 71.1002 43.2176C71.1922 43.5593 71.4144 43.8434 71.7218 44.0187C72.0314 44.1962 72.3905 44.2406 72.736 44.1496C73.0816 44.0586 73.3688 43.8412 73.5461 43.5349C73.7256 43.2287 73.7727 42.8737 73.6785 42.5319C73.4227 41.5844 73.9904 40.6125 74.9485 40.3573C75.9067 40.1021 76.8895 40.6657 77.1475 41.6133C77.4886 42.8692 77.3136 44.1829 76.6539 45.3102C75.9964 46.4374 74.935 47.2429 73.6627 47.5802C73.2409 47.6934 72.8101 47.7489 72.3815 47.7489Z" fill="#FF699F"/>
<path d="M56.8537 51.8628C56.001 51.8628 55.1573 51.6409 54.3988 51.2082C53.2589 50.5581 52.4444 49.5085 52.1033 48.2503C51.8475 47.3028 52.4152 46.3308 53.3734 46.0756C54.3315 45.8227 55.3143 46.3841 55.5724 47.3316C55.6644 47.6733 55.8865 47.9574 56.1939 48.1327C56.5036 48.3102 56.8626 48.3568 57.2059 48.2636C57.5515 48.1726 57.8387 47.9551 58.016 47.6489C58.1955 47.3427 58.2426 46.9877 58.1484 46.6459C57.8926 45.7006 58.4603 44.7265 59.4184 44.4713C60.3766 44.2183 61.3594 44.7797 61.6175 45.7273C61.9585 46.9832 61.7835 48.2969 61.1238 49.4241C60.4663 50.5514 59.405 51.3569 58.1327 51.6942C57.7131 51.8074 57.2822 51.8628 56.8537 51.8628Z" fill="#FF699F"/>
<path d="M67.6648 63.4951C66.3858 63.4951 65.1225 63.1622 63.9871 62.5143C62.2794 61.5401 61.0588 59.9669 60.5494 58.0829C60.2913 57.1354 60.8613 56.1612 61.8194 55.9083C62.7776 55.6553 63.7604 56.2167 64.0185 57.1642C64.281 58.1317 64.9071 58.9394 65.7844 59.4387C66.6618 59.938 67.6805 60.0734 68.6589 59.8137C70.6761 59.279 71.8789 57.2197 71.3381 55.2248C71.0823 54.2773 71.65 53.3054 72.6081 53.0502C73.5663 52.795 74.5513 53.3586 74.8072 54.3061C75.8618 58.1939 73.5214 62.2036 69.5901 63.2421C68.9528 63.413 68.3066 63.4951 67.6648 63.4951Z" fill="#FF699F"/>
<path d="M91.0396 45.0371C88.1944 34.5367 78.9136 27.0453 67.9476 26.3951C66.9558 26.3374 66.1076 27.083 66.0493 28.0616C65.9909 29.0424 66.7449 29.8812 67.7344 29.9389C77.1544 30.4959 85.1292 36.9332 87.5728 45.9558C90.6985 57.488 83.7514 69.3842 72.0899 72.4753C70.2252 72.9701 68.3358 73.2076 66.4644 73.2076C59.1358 73.2076 52.1012 69.5528 48.0262 63.3152C49.9044 59.8047 50.9725 55.806 50.9725 51.5655C50.9725 47.3249 49.9066 43.3262 48.0285 39.8157C49.7473 37.184 52.0451 34.925 54.7041 33.2608C55.5411 32.7371 55.7902 31.6409 55.2606 30.811C54.731 29.9833 53.6203 29.7369 52.7833 30.2606C50.1445 31.9116 47.8131 34.064 45.9439 36.556C41.2945 30.3738 33.8538 26.3618 25.484 26.3618C11.4327 26.364 0 37.6677 0 51.5655C0 65.4632 11.4327 76.7691 25.4862 76.7691C33.8605 76.7691 41.3013 72.7549 45.9506 66.5705C48.6904 70.2097 52.4265 73.1099 56.6922 74.8541C59.8135 76.1322 63.0873 76.7735 66.3859 76.7735C68.5984 76.7735 70.8221 76.4851 73.0166 75.9014C86.5922 72.3089 94.677 58.4599 91.0396 45.0371ZM25.4862 73.2187C13.4118 73.2187 3.59024 63.506 3.59024 51.5677C3.59024 39.6293 13.4118 29.9145 25.4862 29.9145C37.5607 29.9145 47.38 39.6271 47.38 51.5677C47.38 63.506 37.5584 73.2187 25.4862 73.2187Z" fill="#FF699F"/>
<path d="M20.579 49.5776C19.5872 49.5776 18.7839 48.7832 18.7839 47.8024C18.7839 47.0746 18.1848 46.4821 17.4488 46.4821C16.7128 46.4821 16.1137 47.0746 16.1137 47.8024C16.1137 48.7832 15.3104 49.5776 14.3186 49.5776C13.3268 49.5776 12.5234 48.7832 12.5234 47.8024C12.5234 45.1174 14.7337 42.9316 17.4488 42.9316C20.1639 42.9316 22.3742 45.1174 22.3742 47.8024C22.3742 48.781 21.5686 49.5776 20.579 49.5776Z" fill="#FF699F"/>
<path d="M36.6542 49.5776C35.6624 49.5776 34.8591 48.7832 34.8591 47.8024C34.8591 47.0746 34.26 46.4821 33.524 46.4821C32.788 46.4821 32.1889 47.0746 32.1889 47.8024C32.1889 48.7832 31.3856 49.5776 30.3938 49.5776C29.4019 49.5776 28.5986 48.7832 28.5986 47.8024C28.5986 45.1174 30.8089 42.9316 33.524 42.9316C36.2414 42.9316 38.4494 45.1174 38.4494 47.8024C38.4494 48.781 37.6461 49.5776 36.6542 49.5776Z" fill="#FF699F"/>
<path d="M25.4863 63.6615C21.4182 63.6615 18.1084 60.3884 18.1084 56.3631C18.1084 55.3823 18.9117 54.5879 19.9035 54.5879C20.8953 54.5879 21.6986 55.3823 21.6986 56.3631C21.6986 58.429 23.3973 60.111 25.4863 60.111C27.5754 60.111 29.2741 58.4312 29.2741 56.3631C29.2741 55.3823 30.0774 54.5879 31.0692 54.5879C32.061 54.5879 32.8643 55.3823 32.8643 56.3631C32.8643 60.3884 29.5545 63.6615 25.4863 63.6615Z" fill="#FF699F"/>
<path d="M45.9841 12.116C44.9923 12.116 44.189 11.3193 44.189 10.3407V1.86408C44.189 0.883276 44.9923 0.0888672 45.9841 0.0888672C46.9759 0.0888672 47.7792 0.883276 47.7792 1.86408V10.3407C47.7792 11.3193 46.9759 12.116 45.9841 12.116Z" fill="#FF699F"/>
<path d="M45.9841 19.612C45.5106 19.612 45.0506 19.4211 44.714 19.0927C44.3797 18.7643 44.189 18.305 44.189 17.8367C44.189 17.3707 44.3797 16.9114 44.714 16.5808C45.0484 16.2524 45.5106 16.0615 45.9841 16.0615C46.4575 16.0615 46.9175 16.2524 47.2541 16.5808C47.5885 16.9114 47.7792 17.3707 47.7792 17.8367C47.7792 18.305 47.5885 18.7621 47.2541 19.0927C46.9175 19.4211 46.4575 19.612 45.9841 19.612Z" fill="#FF699F"/>
<path d="M36.7235 16.5338C36.2635 16.5338 35.8057 16.3608 35.4534 16.0146L29.5026 10.1297C28.8025 9.43741 28.8025 8.31237 29.5026 7.62004C30.2027 6.92548 31.3404 6.92548 32.0427 7.62004L37.9935 13.5049C38.6936 14.1972 38.6936 15.3223 37.9935 16.0146C37.6435 16.3608 37.1835 16.5338 36.7235 16.5338Z" fill="#FF699F"/>
<path d="M55.3549 16.3789C54.8949 16.3789 54.4371 16.2058 54.0871 15.8596C53.3848 15.1651 53.3848 14.0422 54.0849 13.3477L59.8696 7.62262C60.572 6.93029 61.7074 6.92807 62.4097 7.62262C63.1121 8.31718 63.1121 9.44 62.4097 10.1346L56.6249 15.8596C56.2749 16.2058 55.8149 16.3789 55.3549 16.3789Z" fill="#FF699F"/>
</svg>
